<?xml version="1.0" encoding="UTF-8"?>
<svg viewBox="0 0 640 480" xmlns="http://www.w3.org/2000/svg">
 <g fill="#fff" stroke="#999">
  <g stroke-width="5">
   <ellipse cx="331" cy="240" rx="252" ry="252"/>
   <ellipse cx="330" cy="241" rx="230" ry="230"/>
  </g>
  <rect x="290" y="278" width="92" height="104" stroke-width="0"/>
 </g>
 <g transform="matrix(1.0818 0 0 1.0818 27.831 90.857)">
  <g fill="#bfbfbf">
   <path d="m268.46 120.31c0 16.011-15.288 127.36-6.6277 167.79 3.6184 16.894 22.516 14.692 25.663 0 7.9922-37.314-6.3152-71.656-6.3152-168.67 0-13.282 10.2-13.625 15.72-30.761 4.9287-15.3-2.0292-97.701-4.2711-97.701-2.5582 0-1.306 71.358-6.1556 71.358-4.8926 0-2.4183-70.39-5.5126-71.358-3.0943-0.96777-0.82483 71.358-6.5496 71.358-5.7826 0-2.0242-71.358-5.1185-71.358s-2.2238 71.358-6.9437 71.358c-5.1961 0-2.4037-71.358-4.7245-71.358-3.9445 0-8.5644 77.496-6.1111 93.865s16.947 19.471 16.947 35.481z"/>
   <path d="m344.94 116.88c0 97.421-15.58 137.03-6.6277 171.43 4.2653 16.388 22.516 14.456 25.663 0 7.2529-33.318-6.3152-75.972-6.3152-171.43 0-11.11 27.645-9.2008 27.645-47.177 0-47.53-17.592-79.003-34.358-79.003-15.648 0-32.635 34.502-32.635 79.003 0 35.661 26.629 38.02 26.629 47.177z"/>
   <path d="m192.09 155.68c0 79.145-15.58 106.86-6.6277 134.8 4.2653 13.314 22.516 11.745 25.663 0 7.253-27.068-6.315-46.942-6.315-133.73 0-10.617 15.195-25.422 15.195-52.781 0-48.642-6.892-114.77-21.909-114.77-14.396 0-11.1 85.243-11.1 131.86 0 20.024 5.0932 25.236 5.0932 34.618z"/>
   <path d="m256.66 54.698a0.46613 0.90798 0 1 1 -0.93228 -0.22471 0.46613 0.90798 0 1 1 0.93228 0.22471z" fill-opacity=".777" opacity=".3"/>
  </g>
 </g>
</svg>
