<?xml version="1.0" encoding="UTF-8" standalone="no"?>
<svg
   width="1000"
   height="600"
   viewBox="0 0 10 6"
   version="1.1"
   id="svg205"
   sodipodi:docname="Flagge_Breidenbach.svg"
   inkscape:version="1.1.1 (3bf5ae0d25, 2021-09-20)"
   xmlns:inkscape="http://www.inkscape.org/namespaces/inkscape"
   xmlns:sodipodi="http://sodipodi.sourceforge.net/DTD/sodipodi-0.dtd"
   xmlns="http://www.w3.org/2000/svg"
   xmlns:svg="http://www.w3.org/2000/svg">
  <sodipodi:namedview
     id="namedview207"
     pagecolor="#ffffff"
     bordercolor="#666666"
     borderopacity="1.0"
     inkscape:pageshadow="2"
     inkscape:pageopacity="0.0"
     inkscape:pagecheckerboard="0"
     showgrid="false"
     inkscape:zoom="0.79832356"
     inkscape:cx="902.51627"
     inkscape:cy="277.45642"
     inkscape:window-width="1920"
     inkscape:window-height="1017"
     inkscape:window-x="1912"
     inkscape:window-y="-8"
     inkscape:window-maximized="1"
     inkscape:current-layer="svg205" />
  <style
     id="style2"><![CDATA[.B{stroke-linecap:round}.C{stroke-linejoin:round}.D{fill-rule:evenodd}.E{stroke:#000}.F{fill:none}.G{stroke-width:1.001}.H{fill:rgb(0%,0%,0%)}.I{stroke-width:.501}.J{filter:url(#A)}.K{fill-opacity:.988}.L{stroke:none}.M{fill-rule:nonzero}.N{fill-opacity:1}.O{stroke-width:1.5}.P{stroke:rgb(0%,0%,0%)}.Q{stroke-opacity:1}.R{stroke-miterlimit:4}.S{stroke-width:.601}.T{stroke-width:1.051}.U{fill:rgb(97.647059%,81.960784%,0%)}.V{stroke-width:.801}.W{stroke-width:.851}.X{stroke-width:.751}]]></style>
  <defs
     id="defs51">
    <filter
       id="A"
       x="0"
       y="0"
       width="1"
       height="1">
      <feColorMatrix
         in="SourceGraphic"
         values="0 0 0 0 1 0 0 0 0 1 0 0 0 0 1 0 0 0 1 0"
         id="feColorMatrix4" />
    </filter>
    <mask
       id="B">
      <g
         class="J"
         id="g9">
        <path
           d="M0 0h232v241H0z"
           class="H K L"
           id="path7" />
      </g>
    </mask>
    <clipPath
       id="C">
      <path
         d="M0 0h232v241H0z"
         id="path12" />
    </clipPath>
    <g
       id="D"
       clip-path="url(#C)">
      <path
         d="M-825.141-424.088h103.683v16.463h-103.683zm0 0"
         transform="matrix(.382024 -.323552 .311079 .391977 530.297102 22.971891)"
         class="B C H M N O P Q R"
         id="path15" />
    </g>
    <mask
       id="E">
      <g
         class="J"
         id="g20">
        <path
           d="M0 0h232v241H0z"
           class="H K L"
           id="path18" />
      </g>
    </mask>
    <clipPath
       id="F">
      <path
         d="M0 0h232v241H0z"
         id="path23" />
    </clipPath>
    <g
       id="G"
       clip-path="url(#F)">
      <path
         d="M-823.806-425.727h103.683v16.463h-103.683zm0 0"
         transform="matrix(.382024 -.323552 .311079 .391977 530.297102 22.971891)"
         class="B C M N O P Q R U"
         id="path26" />
    </g>
    <mask
       id="H">
      <g
         class="J"
         id="g31">
        <path
           d="M0 0h232v241H0z"
           class="H K L"
           id="path29" />
      </g>
    </mask>
    <clipPath
       id="I">
      <path
         d="M0 0h232v241H0z"
         id="path34" />
    </clipPath>
    <g
       id="J"
       clip-path="url(#I)">
      <path
         d="M-825.146-424.091h103.683l.006 16.468h-103.683zm0 0"
         transform="matrix(.382024 -.323552 .311079 .391977 543.444702 37.642898)"
         class="B C H M N O P Q R"
         id="path37" />
    </g>
    <mask
       id="K">
      <g
         class="J"
         id="g42">
        <path
           d="M0 0h232v241H0z"
           class="H K L"
           id="path40" />
      </g>
    </mask>
    <clipPath
       id="L">
      <path
         d="M0 0h232v241H0z"
         id="path45" />
    </clipPath>
    <g
       id="M"
       clip-path="url(#L)">
      <path
         d="M-823.807-425.736h103.683l.001 16.474h-103.683zm0 0"
         transform="matrix(.382024 -.323552 .311079 .391977 543.444702 37.642898)"
         class="B C M N O P Q R U"
         id="path48" />
    </g>
    <clipPath
       id="clipPath2061">
      <path
         d="m0 0h624v567h-624z"
         id="path2-5" />
    </clipPath>
    <clipPath
       clipPathUnits="userSpaceOnUse"
       id="clipPath147">
      <path
         d="M 0,566.93 H 623.62 V 0 H 0 Z"
         id="path145" />
    </clipPath>
    <clipPath
       clipPathUnits="userSpaceOnUse"
       id="clipPath239">
      <path
         d="M 35.88,316.06 H 141.16 V 486.93 H 35.88 Z"
         id="path237" />
    </clipPath>
  </defs>
  <path
     fill="#205a99"
     d="M0 0h10v3H0z"
     id="path53"
     style="fill:#ffffff" />
  <path
     fill="#fff"
     d="M0 3h10v3H0z"
     id="path55"
     style="fill:#e30613;fill-opacity:1" />
  <g
     id="g235"
     clip-path="url(#clipPath239)"
     transform="matrix(0.0334344,0,0,-0.0334344,2.1607406,17.111369)">
    <g
       id="g241"
       transform="translate(132.19,481.52)">
      <path
         d="m 0,0 h -94.974 v -61.981 c 0,-40.389 42.459,-57.309 47.594,-57.199 5.692,0.22 47.38,19.52 47.38,57.199 z"
         style="fill:#ffffff;fill-opacity:1;fill-rule:nonzero;stroke:none"
         id="path243" />
    </g>
    <g
       id="g245"
       transform="translate(91.888,398.35)">
      <path
         d="m 0,0 c 0,0 0.746,-1.592 1.302,-2.727 0.603,-1.33 1.662,-2.451 1.422,-3.567 -0.169,-0.735 -1.881,-0.939 -2.774,-0.939 -0.892,0 -1.904,0 -2.531,-0.144 -0.603,-0.139 -1.398,-1.003 -1.255,-2.093 0.17,-1.474 1.112,-2.633 1.112,-2.341 0,0.666 0.07,1.126 0.409,1.479 0.288,0.36 0.723,0.36 1.326,0.245 1.399,-0.266 3.158,0.579 3.497,1.069 0.313,0.492 0.24,0.541 0.553,0.8 0.626,0.544 0.337,-0.671 1.881,-0.617 0.506,0.01 0.506,0.177 0.82,0.135 0.313,-0.048 0.506,-0.587 0.457,-1.387 -0.048,-0.759 -0.121,-1.288 0.169,-1.962 0.266,-0.668 0.459,-1.12 0.532,-1.295 0.193,-0.633 -0.266,-1.151 -0.532,-1.203 -0.264,-0.04 -0.772,0 -0.313,-0.221 0.435,-0.219 1.641,-0.485 2.267,0 0.314,0.235 0.241,0.127 0.723,0.221 0.554,0.113 1.206,1.547 0.77,2.585 -0.53,1.199 -1.493,2.906 -2.481,3.706 -0.267,0.215 -0.627,0.399 -0.217,0.624 0.409,0.222 0.264,0.492 0.796,0.177 0.553,-0.308 1.492,-0.779 2.095,-1.114 0.942,-0.508 3.304,-0.758 3.523,-0.664 0.24,0.087 0.553,0.387 0.916,-0.106 0.36,-0.492 0.433,-1.671 0.626,-1.69 0.36,-0.02 1.109,2.046 0,3.172 -0.169,0.162 0.193,0.466 0,0.916 -0.483,1.078 -2.604,1.184 -3.497,1.184 -0.892,0 -1.591,0 -2.144,-0.09 -0.53,-0.089 -0.653,-0.226 -0.966,-0.089 -0.313,0.132 -0.483,0.256 -0.36,0.619 0.143,0.509 1.326,1.922 1.589,2.145 0.29,0.221 0.17,0.038 0.723,0.311 0.579,0.29 0.772,0.758 0.532,1.067 -0.217,0.318 -0.266,0.626 0.1,0.852 0.577,0.358 1.422,-0.045 1.952,-0.574 0.07,-0.069 0.146,1.659 -1.303,2.015 C 10.874,0.709 10.488,0.713 10.247,0.405 10.054,0.141 9.692,0.143 9.499,0.381 9.282,0.617 8.823,0.565 8.509,0.483 7.16,0.106 6.847,-3.664 6.654,-4.019 6.461,-4.377 6.075,-4.575 5.762,-4.528 5.448,-4.474 5.352,-4.278 4.893,-3.438 4.05,-1.856 4.026,-1.688 3.567,-0.765 3.11,0.158 2.578,1.286 2.578,1.286"
         style="fill:#ffed00;fill-opacity:1;fill-rule:nonzero;stroke:none"
         id="path247" />
    </g>
    <g
       id="g249"
       transform="translate(104.76,397.18)">
      <path
         d="M 0,0 C -0.073,0.697 -0.459,1.318 -1.206,1.5 -2.075,1.719 -2.338,1.674 -2.484,1.469 -2.967,0.805 -3.351,1.53 -3.833,1.547 L -4.293,1.481 C -5.258,1.222 -5.691,-1.166 -5.884,-2.086 L -5.981,-2.611 -6.028,-2.795 C -6.365,-3.523 -7.21,-3.8 -7.62,-3.214 l -0.216,0.339 -0.29,0.516 c -0.819,1.556 -1.568,3.153 -2.314,4.732 l 0.289,0.151 c 0.772,-1.58 1.495,-3.174 2.338,-4.721 l 0.266,-0.513 0.193,-0.304 c 0.288,-0.382 0.796,-0.118 0.989,0.235 l 0.071,0.238 0.097,0.516 c 0.193,1.074 0.652,3.511 1.808,3.833 0.337,0.099 0.869,0.153 1.132,-0.158 l 0.509,0.017 c 0.287,0.414 0.82,0.36 1.639,0.16 0.916,-0.231 1.422,-1.055 1.446,-1.935 V -0.327 C 0.313,-0.57 0.073,-0.525 0.024,-0.476 -0.506,0.05 -1.255,0.37 -1.712,0.075 c -0.243,-0.146 -0.243,-0.327 -0.049,-0.607 0.313,-0.443 0.026,-1.01 -0.603,-1.319 L -2.701,-1.99 -2.87,-2.039 -3.04,-2.138 c -0.264,-0.217 -1.422,-1.601 -1.542,-2.06 -0.12,-0.375 0.289,-0.507 0.556,-0.453 0.576,0.118 0.916,0.194 1.542,0.21 l 1.205,0.012 c 1.062,0 3.134,-0.134 3.641,-1.281 0.122,-0.294 0.073,-0.513 0,-0.791 1.062,-1.177 0.532,-3.575 -0.167,-3.53 L 2.001,-9.892 1.928,-9.715 1.808,-9.24 C 1.712,-8.87 1.615,-8.489 1.446,-8.274 L 1.109,-8.069 0.939,-8.128 0.746,-8.223 c -0.289,-0.122 -2.701,0.146 -3.664,0.667 -0.602,0.339 -1.568,0.805 -2.097,1.123 l -0.243,0.115 -0.384,-0.299 0.024,-0.188 0.217,-0.16 c 1.012,-0.822 2.001,-2.562 2.507,-3.765 0.457,-1.083 -0.193,-2.68 -0.892,-2.819 -0.337,-0.06 -0.387,0.01 -0.65,-0.188 -0.723,-0.546 -1.978,-0.249 -2.437,-0.01 -0.361,0.219 -0.314,0.433 -0.071,0.49 l 0.41,0.04 c 0.169,0.03 0.579,0.441 0.41,0.989 -0.267,0.785 -0.7,1.43 -0.749,2.287 0,0.315 0.026,0.64 0.049,1.026 0.047,0.838 -0.169,1.19 -0.313,1.211 -0.313,-0.057 -0.217,-0.029 -0.459,-0.099 -0.796,-0.184 -1.349,0.07 -1.882,0.664 l -0.48,-0.314 -0.289,-0.489 c -0.363,-0.563 -2.195,-1.427 -3.643,-1.149 -0.626,0.115 -0.94,0.094 -1.18,-0.189 -0.289,-0.304 -0.362,-0.706 -0.362,-1.363 l -0.24,-0.209 -0.194,0.122 c -0.529,0.539 -0.939,1.695 -1.012,2.402 -0.146,1.17 0.676,2.121 1.399,2.279 0.626,0.146 1.662,0.151 2.554,0.151 0.507,0 2.461,0.132 2.605,0.8 0.216,1.031 -0.989,2.543 -1.423,3.461 l -1.278,2.729 0.289,0.142 1.303,-2.724 c 0.482,-1.041 1.688,-2.475 1.448,-3.674 -0.219,-0.934 -2.221,-1.071 -2.944,-1.071 -0.915,0 -1.905,0 -2.481,-0.139 -0.533,-0.127 -1.256,-0.911 -1.135,-1.912 0.07,-0.706 0.362,-1.347 0.602,-1.766 l 0.17,-0.28 c 0.02,0.523 0.144,0.937 0.433,1.276 0.386,0.436 0.893,0.407 1.496,0.294 1.349,-0.252 3.037,0.575 3.326,1.001 l 0.267,0.48 0.336,0.356 c 0.241,0.214 0.46,0.259 0.7,0.016 0.386,-0.449 0.602,-0.619 1.278,-0.598 l 0.264,0.033 0.339,0.101 h 0.24 c 0.483,-0.065 0.653,-0.798 0.603,-1.563 -0.047,-0.673 -0.12,-1.239 0.146,-1.884 0.287,-0.675 0.48,-1.132 0.53,-1.304 0.24,-0.732 -0.29,-1.359 -0.653,-1.425 0.509,-0.171 1.352,-0.28 1.835,0.08 0.336,0.257 0.384,0.175 0.796,0.252 0.383,0.08 1.059,1.366 0.626,2.355 -0.506,1.189 -1.472,2.866 -2.411,3.638 -0.29,0.221 -0.796,0.572 -0.193,0.902 l 0.24,0.209 c 0.266,0.193 0.459,0.116 0.723,-0.035 0.532,-0.309 1.471,-0.777 2.1,-1.111 0.914,-0.502 3.205,-0.723 3.374,-0.655 0.41,0.21 0.747,0.337 1.086,-0.163 0.216,-0.272 0.336,-0.732 0.409,-1.083 l 0.121,-0.449 c 0.193,0.296 0.868,1.768 -0.144,2.799 l -0.097,0.288 c 0.097,0.315 0.144,0.473 0.073,0.673 -0.435,0.973 -2.46,1.083 -3.353,1.083 -0.892,0 -1.591,0 -2.098,-0.085 -0.386,-0.063 -0.722,-0.235 -1.085,-0.075 -0.337,0.144 -0.603,0.332 -0.457,0.822 0.17,0.558 1.399,1.994 1.662,2.223 l 0.316,0.174 0.433,0.16 c 0.553,0.278 0.603,0.643 0.483,0.819 -0.266,0.351 -0.363,0.789 0.12,1.088 C -1.302,0.73 -0.556,0.426 0,0"
         style="fill:#000000;fill-opacity:1;fill-rule:nonzero;stroke:none"
         id="path251" />
    </g>
    <g
       id="g253"
       transform="translate(88.052,389.09)">
      <path
         d="M 0,0 C 0,0 1.592,1.535 2.677,-0.756"
         style="fill:#ffed00;fill-opacity:1;fill-rule:nonzero;stroke:none"
         id="path255" />
    </g>
    <g
       id="g257"
       transform="translate(87.932,389.21)">
      <path
         d="M 0,0 0.313,0.229 C 1.425,0.961 2.388,0.407 2.967,-0.803 L 2.654,-0.949 C 2.171,0.078 1.448,0.563 0.483,-0.054 L 0.242,-0.238 Z"
         style="fill:#000000;fill-opacity:1;fill-rule:nonzero;stroke:none"
         id="path259" />
    </g>
    <g
       id="g261"
       transform="translate(98.878,384.91)">
      <path
         d="M 0,0 C 0,0 0.243,0.405 0.626,0.28 1.036,0.16 1.639,-0.078 1.712,-1.097"
         style="fill:#ffed00;fill-opacity:1;fill-rule:nonzero;stroke:none"
         id="path263" />
    </g>
    <g
       id="g265"
       transform="translate(98.735,385)">
      <path
         d="m 0,0 0.047,0.085 0.17,0.148 C 0.337,0.339 0.553,0.438 0.819,0.356 1.253,0.229 1.952,-0.047 2.025,-1.175 L 1.688,-1.198 C 1.639,-0.28 1.086,-0.075 0.723,0.036 L 0.41,-0.033 0.29,-0.169 Z"
         style="fill:#000000;fill-opacity:1;fill-rule:nonzero;stroke:none"
         id="path267" />
    </g>
    <g
       id="g269"
       transform="translate(105.68,389.41)">
      <path
         d="M 0,0 C 0,0 -0.65,1.194 0.264,1.34 0.603,1.387 1.06,1.144 1.06,1.144"
         style="fill:#ffed00;fill-opacity:1;fill-rule:nonzero;stroke:none"
         id="path271" />
    </g>
    <g
       id="g273"
       transform="translate(105.73,389.45)">
      <path
         d="M 0,0 C 0,0 -0.603,1.102 0.243,1.236 0.556,1.281 0.965,1.055 0.965,1.055"
         style="fill:none;stroke:#ffed00;stroke-width:0.779;stroke-linecap:butt;stroke-linejoin:miter;stroke-miterlimit:4;stroke-dasharray:none;stroke-opacity:1"
         id="path275" />
    </g>
    <g
       id="g277"
       transform="translate(105.37,389.21)">
      <path
         d="M 0,0 -0.12,0.254 C -0.386,0.878 -0.506,1.785 0.457,1.935 0.796,1.983 1.253,1.836 1.566,1.674 L 1.399,1.375 1.086,1.507 C 0.047,1.862 -0.17,1.239 0.193,0.386 L 0.29,0.167 Z"
         style="fill:#000000;fill-opacity:1;fill-rule:nonzero;stroke:none"
         id="path279" />
    </g>
    <g
       id="g281"
       transform="translate(101.82,398.54)">
      <path
         d="M 0,0 C 0,0 -0.532,-0.702 0.047,-1.33 0.36,-1.655 0.697,-1.674 0.843,-1.674"
         style="fill:#ffed00;fill-opacity:1;fill-rule:nonzero;stroke:none"
         id="path283" />
    </g>
    <g
       id="g285"
       transform="translate(101.97,398.44)">
      <path
         d="M 0,0 C -0.483,-0.598 -0.049,-1.404 0.699,-1.404 V -1.74 c -0.989,0 -1.518,0.97 -1.062,1.806 l 0.097,0.144 z"
         style="fill:#000000;fill-opacity:1;fill-rule:nonzero;stroke:none"
         id="path287" />
    </g>
    <g
       id="g289"
       transform="translate(77.275,398.35)">
      <path
         d="m 0,0 c 0,0 -0.77,-1.592 -1.302,-2.727 -0.626,-1.33 -1.663,-2.451 -1.422,-3.567 0.146,-0.735 1.881,-0.939 2.773,-0.939 0.891,0 1.906,0 2.532,-0.144 0.602,-0.139 1.398,-1.003 1.252,-2.093 -0.167,-1.474 -1.132,-2.633 -1.109,-2.341 0,0.666 -0.096,1.126 -0.409,1.479 -0.313,0.36 -0.723,0.36 -1.326,0.245 -1.399,-0.266 -3.184,0.579 -3.497,1.069 -0.313,0.492 -0.263,0.541 -0.553,0.8 -0.629,0.544 -0.363,-0.671 -1.881,-0.617 -0.507,0.01 -0.507,0.177 -0.82,0.135 -0.313,-0.048 -0.506,-0.587 -0.459,-1.387 0.049,-0.759 0.12,-1.288 -0.167,-1.962 -0.266,-0.668 -0.483,-1.12 -0.532,-1.295 -0.217,-0.633 0.266,-1.151 0.532,-1.203 0.264,-0.04 0.77,0 0.313,-0.221 -0.435,-0.219 -1.641,-0.485 -2.268,0 -0.312,0.235 -0.24,0.127 -0.722,0.221 -0.554,0.113 -1.206,1.547 -0.773,2.585 0.507,1.199 1.495,2.906 2.461,3.706 0.29,0.215 0.626,0.399 0.24,0.624 -0.41,0.222 -0.263,0.492 -0.819,0.177 -0.53,-0.308 -1.472,-0.779 -2.098,-1.114 -0.916,-0.508 -3.28,-0.758 -3.497,-0.664 -0.24,0.087 -0.553,0.387 -0.916,-0.106 -0.36,-0.492 -0.456,-1.671 -0.626,-1.69 -0.363,-0.02 -1.109,2.046 0,3.172 0.17,0.162 -0.193,0.466 0,0.916 0.459,1.078 2.604,1.184 3.496,1.184 0.893,0 1.592,0 2.122,-0.09 0.553,-0.089 0.676,-0.226 0.989,-0.089 0.313,0.132 0.457,0.256 0.36,0.619 -0.144,0.509 -1.349,1.922 -1.615,2.145 -0.264,0.221 -0.144,0.038 -0.699,0.311 -0.603,0.29 -0.77,0.758 -0.53,1.067 0.216,0.318 0.266,0.626 -0.1,0.852 -0.579,0.358 -1.422,-0.045 -1.952,-0.574 -0.07,-0.069 -0.146,1.659 1.3,2.015 0.822,0.21 1.232,0.214 1.448,-0.094 0.193,-0.264 0.579,-0.262 0.773,-0.024 0.216,0.236 0.673,0.184 0.963,0.102 1.351,-0.377 1.688,-4.147 1.881,-4.502 0.193,-0.358 0.579,-0.556 0.892,-0.509 0.313,0.054 0.41,0.25 0.843,1.09 0.846,1.582 0.893,1.75 1.352,2.673 0.433,0.923 0.989,2.051 0.989,2.051"
         style="fill:#ffed00;fill-opacity:1;fill-rule:nonzero;stroke:none"
         id="path291" />
    </g>
    <g
       id="g293"
       transform="translate(80.145,386.85)">
      <path
         d="m 0,0 0.193,0.28 c 0.24,0.419 0.53,1.055 0.603,1.766 0.12,1.001 -0.603,1.785 -1.135,1.912 -0.577,0.134 -1.592,0.139 -2.482,0.139 -0.725,0 -2.75,0.137 -2.943,1.071 -0.24,1.199 0.965,2.633 1.448,3.674 l 1.302,2.729 0.29,-0.146 -1.302,-2.729 c -0.41,-0.921 -1.616,-2.435 -1.399,-3.462 0.144,-0.673 2.098,-0.8 2.604,-0.8 0.89,0 1.929,0 2.555,-0.151 C 0.433,4.125 1.276,3.174 1.133,2.008 1.06,1.297 0.65,0.141 0.12,-0.398 c -0.143,-0.146 -0.459,-0.217 -0.433,0.087 0,0.657 -0.097,1.06 -0.363,1.363 -0.24,0.283 -0.579,0.304 -1.182,0.189 C -3.304,0.963 -5.161,1.827 -5.522,2.39 L -5.811,2.88 -6.197,3.245 C -6.727,2.67 -7.064,2.465 -7.836,2.491 -8.102,2.501 -8.246,2.55 -8.342,2.59 l -0.267,0.038 c -0.143,-0.021 -0.362,-0.372 -0.313,-1.21 0.05,-0.733 0.12,-1.331 -0.169,-2.033 -0.29,-0.664 -0.483,-1.113 -0.554,-1.28 -0.169,-0.549 0.264,-0.964 0.41,-0.989 0.144,-0.022 0.796,0.01 0.626,-0.337 l -0.263,-0.198 c -0.459,-0.235 -1.738,-0.532 -2.437,0.014 -0.266,0.2 -0.313,0.123 -0.65,0.189 -0.699,0.138 -1.352,1.735 -0.892,2.818 0.506,1.203 1.495,2.943 2.507,3.765 l 0.217,0.16 0.02,0.189 -0.313,0.263 c -0.24,0 -2.241,-1.099 -2.411,-1.203 -0.965,-0.52 -3.377,-0.789 -3.664,-0.666 l -0.193,0.094 -0.169,0.059 c -0.434,0.066 -0.65,-0.923 -0.7,-1.171 l -0.12,-0.475 -0.07,-0.177 -0.217,-0.139 c -0.675,-0.044 -1.205,2.353 -0.12,3.457 -0.122,0.351 -0.169,0.57 -0.02,0.864 0.48,1.147 2.578,1.281 3.64,1.281 0.893,0 1.616,0 2.169,-0.087 0.242,-0.047 0.629,-0.21 0.892,-0.099 0.266,0.113 0.313,0.167 0.243,0.417 -0.12,0.459 -1.279,1.843 -1.545,2.06 l -0.167,0.099 c -0.603,0.122 -1.615,0.796 -1.111,1.507 0.193,0.282 0.193,0.462 -0.05,0.608 -0.456,0.294 -1.205,-0.03 -1.735,-0.551 -0.05,-0.05 -0.289,-0.095 -0.313,0.148 v 0.219 c 0.02,0.878 0.53,1.705 1.446,1.935 0.819,0.2 1.325,0.255 1.638,-0.16 l 0.509,-0.02 c 0.264,0.313 0.793,0.256 1.133,0.158 1.156,-0.323 1.615,-2.76 1.808,-3.834 L -9.452,7.791 -9.381,7.554 C -9.188,7.198 -8.682,6.93 -8.392,7.318 l 0.193,0.304 0.266,0.513 c 0.843,1.58 0.893,1.747 1.35,2.666 l 0.965,2.055 0.313,-0.151 -0.989,-2.046 C -6.753,9.732 -6.8,9.565 -7.643,7.973 L -7.909,7.457 -8.126,7.118 C -8.561,6.527 -9.381,6.81 -9.668,7.398 l -0.099,0.323 -0.094,0.525 c -0.193,0.921 -0.629,3.308 -1.568,3.567 l -0.796,-0.04 c -0.264,-0.321 -0.773,-0.321 -1.036,0.03 -0.146,0.205 -0.434,0.25 -1.302,0.03 -0.723,-0.181 -1.109,-0.803 -1.182,-1.5 0.529,0.429 1.302,0.73 1.881,0.36 0.48,-0.299 0.386,-0.741 0.144,-1.088 -0.121,-0.176 -0.07,-0.541 0.482,-0.819 l 0.29,-0.127 0.193,-0.05 0.266,-0.157 c 0.264,-0.228 1.493,-1.672 1.662,-2.223 0.17,-0.64 -0.456,-0.977 -0.965,-0.874 -0.144,0.029 -0.313,0.085 -0.577,0.128 -0.532,0.084 -1.231,0.084 -2.098,0.084 -0.772,0 -3.762,-0.174 -3.353,-1.53 l 0.07,-0.222 -0.1,-0.292 c -1.013,-1.031 -0.337,-2.495 -0.17,-2.799 l 0.123,0.45 c 0.1,0.35 0.216,0.81 0.409,1.083 0.36,0.499 0.674,0.372 1.109,0.162 0.167,-0.068 2.458,0.153 3.374,0.655 0.603,0.334 1.569,0.803 2.098,1.111 l 0.34,0.156 0.289,-0.043 0.337,-0.287 0.217,-0.172 0.049,-0.249 -0.266,-0.328 -0.193,-0.153 c -0.966,-0.772 -1.905,-2.449 -2.435,-3.638 -0.409,-0.989 0.264,-2.277 0.676,-2.354 0.384,-0.078 0.433,0 0.77,-0.252 0.459,-0.361 1.326,-0.252 1.832,-0.08 -0.384,0.066 -0.916,0.692 -0.674,1.424 0.071,0.172 0.264,0.629 0.554,1.304 0.266,0.646 0.193,1.211 0.146,1.884 -0.026,0.457 0,1.719 0.843,1.564 L -8.246,2.903 C -7.693,2.71 -7.04,2.826 -6.654,3.261 l 0.313,0.299 h 0.264 l 0.555,-0.513 0.29,-0.481 c 0.264,-0.419 1.975,-1.252 3.327,-1 0.603,0.112 1.109,0.141 1.495,-0.295 C -0.122,0.937 -0.023,0.518 0,0"
         style="fill:#000000;fill-opacity:1;fill-rule:nonzero;stroke:none"
         id="path295" />
    </g>
    <g
       id="g297"
       transform="translate(81.108,389.09)">
      <path
         d="M 0,0 C 0,0 -1.615,1.54 -2.701,-0.756"
         style="fill:#ffed00;fill-opacity:1;fill-rule:nonzero;stroke:none"
         id="path299" />
    </g>
    <g
       id="g301"
       transform="translate(80.988,388.97)">
      <path
         d="m 0,0 -0.24,0.189 c -0.966,0.616 -1.689,0.136 -2.195,-0.891 l -0.289,0.137 c 0.579,1.227 1.518,1.768 2.653,1.036 L 0.217,0.242 Z"
         style="fill:#000000;fill-opacity:1;fill-rule:nonzero;stroke:none"
         id="path303" />
    </g>
    <g
       id="g305"
       transform="translate(70.378,385.1)">
      <path
         d="m 0,0 c 0,0 -0.337,0.219 -0.746,0.094 -0.387,-0.12 -0.99,-0.363 -1.062,-1.396"
         style="fill:#ffed00;fill-opacity:1;fill-rule:nonzero;stroke:none"
         id="path307" />
    </g>
    <g
       id="g309"
       transform="translate(70.284,384.96)">
      <path
         d="m 0,0 -0.169,0.073 h -0.41 C -0.965,-0.042 -1.495,-0.243 -1.545,-1.17 l -0.336,0.014 c 0.073,1.14 0.77,1.417 1.205,1.549 0.217,0.073 0.433,0.043 0.603,0 L 0.094,0.325 0.193,0.283 Z"
         style="fill:#000000;fill-opacity:1;fill-rule:nonzero;stroke:none"
         id="path311" />
    </g>
    <g
       id="g313"
       transform="translate(63.627,389.3)">
      <path
         d="M 0,0 C 0,0 0.845,1.502 -0.313,1.686 -0.746,1.747 -1.349,1.304 -1.349,1.304"
         style="fill:#ffed00;fill-opacity:1;fill-rule:nonzero;stroke:none"
         id="path315" />
    </g>
    <g
       id="g317"
       transform="translate(63.484,389.38)">
      <path
         d="M 0,0 C 0.096,0.137 0.676,1.297 -0.193,1.429 -0.53,1.486 -1.086,1.1 -1.109,1.083 l -0.193,0.273 c 0,0 0.143,0.118 0.386,0.229 0.193,0.106 0.506,0.221 0.77,0.183 0.965,-0.15 0.845,-1.052 0.579,-1.681 l -0.12,-0.254 z"
         style="fill:#000000;fill-opacity:1;fill-rule:nonzero;stroke:none"
         id="path319" />
    </g>
    <g
       id="g321"
       transform="translate(67.27,398.61)">
      <path
         d="M 0,0 C 0,0 0.53,-0.577 0.024,-1.408 -0.217,-1.794 -0.629,-1.759 -0.772,-1.759"
         style="fill:#ffed00;fill-opacity:1;fill-rule:nonzero;stroke:none"
         id="path323" />
    </g>
    <g
       id="g325"
       transform="translate(67.39,398.72)">
      <path
         d="M 0,0 0.096,-0.125 C 0.483,-0.737 0.29,-1.811 -0.483,-2.006 l -0.24,-0.036 h -0.169 v 0.337 h 0.143 l 0.17,0.024 c 0.53,0.139 0.652,0.949 0.386,1.373 l -0.05,0.077 z"
         style="fill:#000000;fill-opacity:1;fill-rule:nonzero;stroke:none"
         id="path327" />
    </g>
    <g
       id="g329"
       transform="translate(84.508,368.03)">
      <path
         d="M 0,0 C -0.12,0 -0.746,0.377 -1.18,0.685 -1.615,0.994 -1.422,1.166 -1.399,1.78 -1.373,2.392 -1.446,2.376 -1.712,2.348 -1.952,2.322 -2.677,1.613 -3.014,1.801 -3.351,1.99 -3.158,2.067 -3.497,2.239 -3.833,2.402 -4.533,1.801 -4.822,1.53 c -0.29,-0.27 -0.7,-0.103 -0.7,-0.103 -0.53,0.054 0,0.671 0.17,1.446 0.143,0.779 1.182,1.596 2.122,2.465 0.915,0.864 1.035,1.413 1.085,2.14 0.071,0.725 -0.05,0.714 -0.483,0.464 C -3.038,7.695 -3.23,7.375 -3.617,6.329 -3.953,5.286 -4.919,5.15 -6.558,4.945 -8.173,4.735 -9.911,4.789 -10.222,4.403 c -0.315,-0.384 -0.219,-0.442 -0.675,-0.442 -0.436,0 -0.603,0.508 -0.772,1.137 -0.17,0.628 0.362,1.653 1.447,2.43 1.107,0.774 2.699,0.051 3.881,0.205 1.182,0.16 1.132,0.569 1.761,1.264 0.627,0.692 1.856,1.326 2.315,2.1 0.482,0.78 0.263,1.397 0.191,2.072 -0.071,0.667 0,0.42 -0.603,-0.162 -0.603,-0.579 -0.264,-0.878 -1.71,-2.684 -1.424,-1.811 -2.99,-1.451 -4.026,-1.039 -1.038,0.415 -1.112,1.194 -3.207,2.023 -2.098,0.822 -3.257,-0.32 -4.486,-1.314 -1.205,-0.996 -2.121,-0.238 -2.724,0.059 -0.579,0.299 -0.339,0.369 0,0.476 0.337,0.105 0.553,-0.107 1.205,0 0.674,0.105 0.603,0.779 1.35,2.015 0.749,1.243 1.542,1.608 3.473,2.171 1.905,0.57 4.556,-2.22 7.74,-1.06 1.688,0.601 2.458,3.342 2.82,6.494 0.387,3.153 -1.038,14.067 -1.038,14.79 0,0.723 -0.264,2.588 -0.264,2.588 0,0 -0.266,-0.933 -0.386,-1.161 -0.12,-0.226 -0.29,-1.479 -0.699,-2.619 -0.433,-1.134 -2.458,-3.489 -2.458,-3.489 0,0 -2.508,-1.203 -2.918,1.321 -0.556,3.049 0.094,10.923 1.349,14.966 0.386,1.172 0.193,5.689 0.193,5.689 l -0.049,2.639 c 0,0 -0.337,-0.678 -0.577,-0.826 l -0.676,0.1 -0.386,0.687 c 0,0 -0.05,-1.389 -0.143,-3.12 -0.1,-1.883 -0.387,-6.096 -0.603,-6.847 -0.193,-0.744 -1.039,-1.359 -1.688,-1.42 -0.556,-0.05 -1.11,0.07 -1.399,0.525 -0.217,0.403 -0.146,0.66 -0.1,0.895 0.05,0.238 0.144,0.148 0.337,0.221 0.217,0.08 0.386,0.292 0.509,1.13 0.07,0.657 -0.292,8.115 -0.292,8.115 l -0.384,-0.702 h -0.629 l -0.41,0.668 c 0,0 -0.386,-14.302 -0.746,-17.716 -0.363,-3.414 -2.025,-3.727 -2.654,-3.864 -0.602,-0.139 -1.372,0.1 -1.902,0.518 -0.532,0.419 -0.459,0.775 -0.459,1.173 0,0.402 0.289,0.134 0.459,0.134 0.167,0 0.723,0.535 1.059,1.151 0.339,0.622 0.387,1.78 0.434,2.35 0.05,0.57 -0.144,17.293 -0.144,17.293 0,0 0,0.09 -0.24,-0.492 -0.193,-0.502 -0.723,-0.419 -0.965,-0.168 -0.267,0.311 -0.843,0.909 -0.843,0.909 0,0 -0.03,-7.747 -0.03,-9.166 0,-1.416 -0.434,-10.86 -0.674,-14.227 -0.242,-3.369 -0.626,-5.632 -1.521,-8.114 -0.746,-2.067 -3.084,-2.122 -3.784,-1.728 -0.699,0.393 -1.012,1.314 -1.012,1.888 0,0.568 0.167,0.464 0.409,0.464 0.241,0 0.434,-0.05 0.893,0.155 0.457,0.198 0.264,0.42 0.796,1.971 0.506,1.552 0.433,20.304 0.433,20.304 l -0.05,9.478 -0.243,-0.582 c -0.216,-0.353 -0.699,-0.358 -0.963,-0.09 -0.362,0.353 -0.315,0.911 -0.315,0.911 0,0 -0.193,-8.822 -1.06,-13.972 -0.506,-3.063 -1.808,-7.756 -3.473,-8.762 -1.133,-0.699 -2.098,-0.518 -2.894,-0.15 -0.77,0.372 -0.939,0.996 -1.276,1.549 -0.146,0.226 0.1,0.671 0.48,0.925 0.363,0.262 0.243,-0.202 0.556,-0.202 0.339,0 0.603,0.1 1.036,0.723 0.41,0.617 0.82,2.689 1.182,4.547 0.386,1.853 1.182,12.851 1.182,13.958 0,1.954 -0.02,3.028 -0.02,3.468 l -0.41,-0.511 c -0.316,-0.259 -0.845,-0.07 -1.086,0.215 l -0.313,0.715 v -0.57 c 0,-0.774 -0.435,-9.618 -2.218,-11.89 -1.399,-1.797 -2.847,-1.658 -3.763,-1.091 -0.915,0.57 -0.965,1.246 -1.085,1.809 -0.07,0.572 -0.02,0.362 0.12,0.678 0.122,0.308 0.292,-0.106 0.556,-0.261 0.266,-0.156 0.796,0.261 1.253,0.93 0.435,0.673 1.085,5.637 1.231,7.655 0.144,2.017 0.313,7.913 0.457,9.31 0.169,1.394 0.412,3.021 0.482,3.595 0.05,0.577 -0.169,0.231 -0.626,-0.186 -0.459,-0.414 -0.843,-0.172 -0.942,0.167 -0.167,0.502 0.05,0.664 -0.143,0.714 -0.193,0.05 -1.013,-3.443 -1.303,-4.196 -0.289,-0.754 -0.915,-1.698 -1.735,-2.218 -0.819,-0.516 -1.349,-0.44 -2.314,-0.101 -0.942,0.341 -1.326,1.551 -1.326,2.121 0,0.568 0,0.951 0.577,1.041 0.556,0.09 0.315,0 0.749,0 0.456,0 1.059,1.285 1.375,2.039 0.313,0.753 0.409,3.767 0.456,5.298 0.05,1.528 0.147,3.876 0.483,5.635 0.313,1.761 6.148,14.598 6.148,14.598 0,0 -0.433,-0.09 -0.699,-0.271 -0.266,-0.186 -1.013,-0.527 -1.785,-0.828 -0.794,-0.304 -1.809,-0.408 -2.602,-0.104 -0.772,0.304 -0.965,0.932 -1.278,1.827 -0.314,0.89 0.313,1.896 0.553,2.258 0.266,0.363 0.483,0.156 0.725,0 0.24,-0.155 0,-0.412 0.167,-0.888 0.193,-0.473 0.41,-0.708 1.569,-1.024 1.156,-0.318 2.411,0.139 3.397,0.723 1.015,0.584 1.954,1.912 1.761,2.793 -0.216,0.88 -1.252,1.294 -1.881,1.674 -0.65,0.38 -1.206,1.27 -1.276,2.17 -0.1,0.9 -0.219,1.59 -0.773,2.04 -0.553,0.44 -0.988,0.13 -1.711,-0.15 -0.723,-0.28 -1.206,-0.47 -2.025,-0.43 -0.796,0 -1.352,0.85 -1.832,1.67 -0.509,0.83 -0.556,1.12 -0.339,1.3 0.216,0.18 0.193,0 0.41,0 0.216,-0.1 0.892,-1.21 1.857,-1.41 0.987,-0.21 1.736,0.88 3.207,1.41 1.496,0.53 2.555,-0.89 2.965,-1.6 0.386,-0.71 0.24,-2.45 0.626,-3.07 0.363,-0.62 0.363,-0.62 1.375,-1.19 1.036,-0.57 1.808,-0.61 2.388,-0.47 0.579,0.15 0.53,0.37 0.939,0.99 0.41,0.62 2.075,1.53 2.87,2.01 0.796,0.49 1.519,0.36 2.459,0.26 0.916,-0.1 1.182,-1.08 1.398,-2.27 0.193,-1.19 -0.263,-2.991 -0.746,-4.291 -0.459,-1.299 -0.965,-2.945 -1.062,-4.596 -0.1,-1.646 1.062,-3.833 1.639,-4.556 0.579,-0.725 1.158,-1.074 2.218,-1.026 1.085,0.04 1.399,0.301 2.291,0.442 0.869,0.139 2.121,-0.532 2.437,-0.761 0.337,-0.23 0.867,-1.101 1.493,-2.034 0.603,-0.928 0.146,-2.362 -0.433,-3.367 -0.554,-1.003 -1.086,-1.596 -1.326,-2.037 -0.242,-0.445 -0.12,-0.577 0.193,-0.845 0.29,-0.266 0.483,-0.1 0.892,-0.146 0.41,-0.05 0.337,-0.21 0.241,-0.624 -0.07,-0.412 -0.483,-0.464 -1.133,-0.647 -0.676,-0.187 -1.568,0 -2.218,0.494 -0.676,0.494 -0.796,1.241 -0.796,2.016 0,0.777 0.65,1.921 1.206,2.844 0.579,0.928 0.289,1.293 0.05,2.018 -0.217,0.725 -0.963,0.473 -2.169,0.384 -1.182,-0.09 -1.688,0.341 -3.087,1.064 -1.375,0.725 -1.445,2.018 -1.881,3.051 -0.41,1.034 0.05,1.293 -0.193,1.449 -0.264,0.155 -0.457,-1.034 -0.674,-1.352 -0.193,-0.318 -0.602,-0.532 -0.941,-0.977 -0.314,-0.443 -0.554,-1.152 -0.554,-1.681 0,-0.535 0.05,-2.305 0.05,-2.972 0,-0.666 0.267,-0.93 0.7,-1.33 0.433,-0.398 0.169,-0.947 0.339,-1.618 0.144,-0.671 0.24,-0.555 0.939,-1.036 0.723,-0.478 0.58,-1.293 0.916,-1.757 0.339,-0.468 0.603,-0.362 1.229,-0.642 0.603,-0.28 1.039,-0.664 1.665,-1.197 0.626,-0.534 1.156,-0.437 1.881,-0.437 0.697,0 2.122,-0.516 4.194,-0.316 2.098,0.198 1.785,0 2.557,0 0.77,0 0.41,0 0.892,-0.179 0.481,-0.176 0.58,-0.664 1.11,-0.709 0.506,-0.04 0.843,-0.266 1.589,-0.09 0.749,0.179 1.425,0.709 1.761,1.375 0.363,0.666 0.58,1.375 0.989,1.686 0.386,0.308 0.916,0.619 0.363,0.751 -0.58,0.134 -0.725,0.221 -1.112,-0.132 -0.409,-0.353 -0.626,-0.619 -0.723,-0.4 -0.072,0.221 -0.336,1.199 0.363,1.865 0.7,0.662 2.964,1.728 3.977,2.79 1.038,1.064 1.615,2.042 1.688,2.748 0.097,0.711 0.363,1.241 -0.12,1.288 -0.483,0.04 -0.626,0.353 -0.892,-0.05 -0.266,-0.398 -0.53,-0.62 -0.434,-0.132 0.074,0.49 0.267,1.373 1.279,1.773 1.013,0.398 1.206,0.177 1.542,0.885 0.314,0.711 0.361,0.916 0.314,1.229 -0.048,0.311 -0.363,2.369 -1.496,2.452 -0.723,0.05 -1.518,0.09 -2.411,0.04 -0.868,-0.04 -1.398,-0.2 -2.074,-0.511 -0.65,-0.308 -1.422,-0.744 -1.903,-1.099 -0.508,-0.354 -0.725,-0.429 -0.965,-0.386 -0.29,0.05 -0.483,0.202 0.047,0.426 0.532,0.221 1.232,0.982 1.808,1.424 0.58,0.443 1.328,0.848 1.978,0.937 0.676,0.09 2.484,0.243 3.16,0.226 1.639,-0.03 2.242,1.543 1.903,1.719 -3.351,1.755 -3.351,1.781 -6.918,3.601 -0.363,0.188 -1.229,0.713 -1.545,0.8 -0.313,0.09 -0.313,0.406 -0.144,0.486 l 0.41,0.1 c 0,0 1.566,2.02 2.845,3.41 1.182,1.26 1.905,1.87 3.473,2.51 1.182,0.47 1.375,0.38 1.928,0.54 0.53,0.15 0.966,0.52 1.448,0.52 0.457,0 0.41,0.4 1.156,-0.1 0.773,-0.48 1.785,-0.97 2.145,-0.93 0.363,0 0.942,0.29 1.135,0.24 0.193,0 0.361,-0.1 0.241,-0.41 -0.146,-0.36 -0.723,-0.78 -0.723,-0.78 0,0 -0.267,-0.47 -0.05,-0.52 0.243,0 0.627,-0.39 1.328,-0.48 0.723,-0.1 1.253,-0.1 1.686,0.1 0.459,0.19 0.989,0.49 0.989,0.49 0,0 0.313,-0.1 0.313,-0.66 0,-0.57 0.243,-1.02 -0.483,-1.47 -0.722,-0.44 -1.036,-0.5 -1.349,-0.71 -0.289,-0.21 -0.41,-0.29 -0.143,-0.53 0.263,-0.24 0.313,-0.58 0.988,-0.75 0.674,-0.18 1.687,-0.936 1.736,-1.202 0.05,-0.267 0.217,-0.467 0.53,-0.467 0.313,0 0.819,0 1.085,0.104 0.29,0.1 0.723,0.311 1.086,0.05 0.36,-0.259 0.89,-0.975 1.205,-1.552 0.314,-0.577 0.603,-0.723 0.916,-0.826 0.314,-0.104 0.384,-0.104 -0.05,-0.415 -0.41,-0.311 -0.53,-0.515 -1.182,-0.259 -0.674,0.259 -0.94,0.412 -1.3,0.57 -0.339,0.153 -0.509,0.139 -0.509,-0.269 v -1.801 c 0,-0.464 -0.12,-0.826 -0.263,-1.088 -0.146,-0.256 -0.506,-0.357 -0.506,-0.357 0,0 -0.243,-0.808 0,-1.672 0.216,-0.864 0.722,-1.846 0.769,-2.362 0.03,-0.523 0.29,-1.295 0.22,-2.072 -0.1,-0.777 -0.121,-1.017 -0.34,-1.549 -0.193,-0.535 -0.723,-0.624 -0.723,-0.624 0,0 -0.1,-0.394 -0.05,-1.018 0.05,-0.621 0.05,-2.26 -0.05,-2.79 -0.1,-0.534 0.05,-1.288 -0.36,-1.464 -0.387,-0.177 -0.603,-0.311 -0.603,-0.311 0,0 0.216,-2.056 0.216,-2.378 0,-0.325 0.02,-0.504 -0.1,-0.726 -0.12,-0.221 -0.796,-0.621 -0.796,-0.621 l 0.24,-1.017 c 0,0 0.337,0.249 0.773,0.501 0.433,0.252 0.529,0.252 1.302,0.252 0.772,0 0.483,0.198 2.554,0 2.075,-0.2 3.497,0.316 4.22,0.316 0.699,0 1.232,-0.1 1.858,0.437 0.626,0.533 1.059,0.917 1.686,1.197 0.628,0.28 0.894,0.174 1.231,0.642 0.313,0.464 0.193,1.279 0.893,1.757 0.699,0.481 0.795,0.365 0.939,1.036 0.17,0.671 -0.1,1.22 0.337,1.618 0.459,0.4 0.725,0.664 0.725,1.33 0,0.667 0.05,2.437 0.05,2.972 0,0.529 -0.264,1.238 -0.579,1.681 -0.313,0.445 -0.747,0.659 -0.94,0.977 -0.193,0.318 -0.409,1.507 -0.675,1.352 -0.241,-0.156 0.216,-0.415 -0.194,-1.449 -0.409,-1.033 -0.48,-2.326 -1.878,-3.051 -1.376,-0.723 -1.905,-1.154 -3.087,-1.064 -1.182,0.09 -1.929,0.341 -2.171,-0.384 -0.241,-0.725 -0.507,-1.09 0.05,-2.018 0.579,-0.923 1.229,-2.067 1.229,-2.844 0,-0.775 -0.146,-1.522 -0.796,-2.016 -0.676,-0.494 -1.568,-0.681 -2.218,-0.494 -0.676,0.183 -1.059,0.235 -1.158,0.647 -0.09,0.414 -0.167,0.57 0.266,0.624 0.41,0.05 0.579,-0.12 0.892,0.146 0.29,0.268 0.41,0.4 0.193,0.845 -0.24,0.441 -0.772,1.034 -1.351,2.037 -0.577,1.005 -1.036,2.439 -0.41,3.367 0.603,0.933 1.135,1.804 1.472,2.034 0.336,0.229 1.568,0.9 2.46,0.761 0.867,-0.141 1.18,-0.4 2.266,-0.442 1.085,-0.05 1.664,0.301 2.217,1.026 0.58,0.723 1.762,2.91 1.665,4.556 -0.1,1.651 -0.602,3.297 -1.085,4.596 -0.483,1.3 -0.942,3.101 -0.723,4.291 0.217,1.19 0.457,2.17 1.399,2.27 0.915,0.1 1.638,0.23 2.434,-0.26 0.796,-0.48 2.458,-1.39 2.894,-2.01 0.41,-0.62 0.337,-0.84 0.916,-0.99 0.577,-0.14 1.349,-0.1 2.385,0.47 1.039,0.57 1.015,0.57 1.399,1.19 0.363,0.62 0.219,2.36 0.603,3.07 0.41,0.71 1.495,2.13 2.966,1.6 1.472,-0.53 2.219,-1.62 3.208,-1.41 0.965,0.2 1.638,1.32 1.855,1.41 0.217,0.1 0.217,0.22 0.41,0 0.219,-0.18 0.169,-0.47 -0.314,-1.3 -0.506,-0.82 -1.035,-1.63 -1.855,-1.67 -0.796,0 -1.279,0.15 -2.025,0.43 -0.723,0.28 -1.158,0.59 -1.712,0.15 -0.556,-0.45 -0.676,-1.14 -0.748,-2.04 -0.1,-0.9 -0.65,-1.79 -1.277,-2.17 -0.652,-0.38 -1.688,-0.794 -1.881,-1.674 -0.217,-0.881 0.746,-2.209 1.735,-2.793 0.989,-0.584 2.268,-1.041 3.4,-0.723 1.159,0.316 1.399,0.551 1.569,1.024 0.167,0.476 -0.07,0.733 0.167,0.888 0.266,0.156 0.459,0.363 0.723,0 0.266,-0.362 0.869,-1.368 0.579,-2.258 -0.313,-0.895 -0.506,-1.523 -1.302,-1.827 -0.77,-0.304 -1.809,-0.2 -2.579,0.104 -0.795,0.301 -1.544,0.642 -1.808,0.828 -0.266,0.184 -0.701,0.271 -0.701,0.271 0,0 5.837,-12.837 6.15,-14.598 0.336,-1.759 0.433,-4.107 0.48,-5.635 0.05,-1.531 0.17,-4.545 0.483,-5.298 0.313,-0.754 0.916,-2.039 1.351,-2.039 0.434,0 0.193,0.09 0.77,0 0.556,-0.09 0.556,-0.473 0.556,-1.041 0,-0.57 -0.386,-1.78 -1.326,-2.121 -0.939,-0.339 -1.495,-0.415 -2.314,0.101 -0.796,0.52 -1.449,1.464 -1.738,2.218 -0.287,0.753 -0.41,1.863 -0.626,2.395 -0.193,0.532 -0.457,1.853 -0.674,1.801 -0.193,-0.05 0.09,-0.459 -0.219,-0.874 -0.337,-0.414 -0.819,-0.348 -1.036,0 -0.313,0.53 -0.482,0.756 -0.433,0.179 0.05,-0.574 0.29,-2.201 0.457,-3.595 0.146,-1.397 0.313,-7.293 0.459,-9.31 0.169,-2.018 0.796,-6.982 1.253,-7.655 0.435,-0.669 0.965,-1.086 1.229,-0.93 0.266,0.155 0.435,0.569 0.579,0.261 0.146,-0.316 0.193,-0.106 0.1,-0.678 -0.1,-0.563 -0.167,-1.239 -1.085,-1.809 -0.916,-0.567 -2.338,-0.706 -3.76,1.091 -1.759,2.272 -2.195,11.116 -2.195,11.89 v 0.57 l -0.336,-0.715 c -0.241,-0.285 -0.773,-0.474 -1.086,-0.215 l -0.41,0.511 c 0,-0.44 -0.02,-1.514 -0.02,-3.468 0,-1.107 0.796,-12.105 1.179,-13.958 0.363,-1.858 0.773,-3.93 1.206,-4.547 0.41,-0.624 0.676,-0.723 1.013,-0.723 0.339,0 0.192,0.464 0.579,0.202 0.362,-0.254 0.602,-0.699 0.482,-0.925 -0.336,-0.553 -0.529,-1.177 -1.302,-1.549 -0.772,-0.368 -1.759,-0.549 -2.894,0.15 -1.662,1.006 -2.941,5.699 -3.47,8.762 -0.869,5.15 -1.062,13.972 -1.062,13.972 0,0 0.05,-0.558 -0.29,-0.911 -0.263,-0.266 -0.746,-0.261 -0.963,0.09 l -0.266,0.582 -0.05,-9.478 c 0,0 -0.07,-18.752 0.457,-20.304 0.529,-1.551 0.313,-1.773 0.772,-1.971 0.483,-0.204 0.676,-0.155 0.916,-0.155 0.24,0 0.386,0.104 0.386,-0.464 0,-0.574 -0.313,-1.495 -1.012,-1.888 -0.7,-0.394 -3.014,-0.339 -3.763,1.728 -0.89,2.482 -1.302,4.745 -1.542,8.114 -0.243,3.367 -0.653,12.811 -0.653,14.227 0,1.419 -0.05,9.166 -0.05,9.166 0,0 -0.555,-0.598 -0.843,-0.909 -0.216,-0.251 -0.748,-0.334 -0.941,0.168 -0.241,0.579 -0.241,0.492 -0.241,0.492 0,0 -0.216,-16.723 -0.169,-17.293 0.05,-0.57 0.1,-1.728 0.433,-2.35 0.339,-0.616 0.892,-1.151 1.062,-1.151 0.193,0 0.483,0.268 0.483,-0.134 0,-0.398 0.05,-0.754 -0.483,-1.173 -0.53,-0.421 -1.302,-0.657 -1.905,-0.518 -0.603,0.137 -2.265,0.45 -2.628,3.864 -0.386,3.414 -0.772,17.716 -0.772,17.716 l -0.41,-0.668 h -0.626 l -0.386,0.702 c 0,0 -0.363,-7.458 -0.264,-8.115 0.09,-0.838 0.287,-1.054 0.481,-1.13 0.192,-0.07 0.289,0.02 0.339,-0.221 0.07,-0.235 0.143,-0.492 -0.1,-0.895 -0.266,-0.452 -0.822,-0.579 -1.399,-0.525 -0.652,0.06 -1.495,0.676 -1.688,1.42 -0.193,0.751 -0.483,4.964 -0.603,6.847 -0.1,1.731 -0.146,3.12 -0.146,3.12 l -0.36,-0.687 -0.699,-0.1 c -0.24,0.148 -0.58,0.826 -0.58,0.826 L 8.488,52.233 c 0,0 -0.242,-4.54 0.193,-5.689 1.326,-3.497 1.663,-11.962 1.446,-14.863 -0.386,-2.783 -2.868,-1.462 -2.868,-1.462 0,0 -2.171,2.393 -2.581,3.527 -0.433,1.14 -0.602,2.393 -0.725,2.619 -0.12,0.228 -0.36,1.161 -0.36,1.161 0,0 -0.266,-1.865 -0.266,-2.588 0,-0.723 -1.446,-11.637 -1.06,-14.79 0.387,-3.152 1.133,-5.893 2.821,-6.494 3.207,-1.16 5.835,1.63 7.74,1.06 1.928,-0.563 2.724,-0.928 3.473,-2.171 0.77,-1.236 0.673,-1.91 1.349,-2.015 0.676,-0.107 0.869,0.105 1.206,0 0.337,-0.107 0.579,-0.177 0,-0.476 C 18.277,9.755 17.361,8.997 16.131,9.993 14.903,10.987 13.744,12.129 11.646,11.307 9.548,10.478 9.477,9.699 8.439,9.284 7.403,8.872 5.861,8.512 4.413,10.323 2.967,12.129 3.303,12.428 2.701,13.007 2.098,13.589 2.171,13.836 2.098,13.169 2.025,12.494 1.834,11.877 2.291,11.097 2.748,10.323 4.003,9.689 4.606,8.997 5.232,8.302 5.185,7.893 6.365,7.733 7.57,7.579 9.162,8.302 10.247,7.528 11.356,6.751 11.862,5.726 11.695,5.098 11.526,4.469 11.38,3.961 10.923,3.961 10.49,3.961 10.56,4.019 10.247,4.403 9.934,4.789 8.199,4.735 6.584,4.945 4.968,5.15 4.003,5.286 3.642,6.329 3.28,7.375 3.087,7.695 2.654,7.942 2.218,8.192 2.098,8.203 2.171,7.478 2.218,6.751 2.338,6.202 3.28,5.338 4.196,4.469 5.232,3.652 5.401,2.873 c 0.144,-0.775 0.58,-1.43 0.05,-1.481 0,0 -0.339,-0.137 -0.579,0.044 C 4.799,1.49 4.436,1.851 4.026,2.122 3.642,2.369 3.377,2.098 3.063,1.773 2.701,1.366 2.195,2.343 1.688,2.343 1.326,2.343 1.352,1.945 1.422,1.773 1.519,1.408 1.592,1.005 1.255,0.673 0.965,0.365 0,0 0,0"
         style="fill:#e30613;fill-opacity:1;fill-rule:nonzero;stroke:none"
         id="path331" />
    </g>
    <g
       id="g333"
       transform="translate(75.13,455.57)">
      <path
         d="m 0,0 c 0,0 1.06,0.72 1.519,0.947 2.387,1.146 7.016,1.492 7.499,1.579 1.832,0.325 2.315,1.717 2.435,2.529 0.12,0.813 -0.146,2.275 -1.399,2.929 -1.978,1.02 -3.087,1.173 -4.05,1.675 -0.026,0.014 0.82,-0.017 0.843,0.456 0.073,0.733 -1.036,1.128 -1.568,0.648 -0.36,-0.362 0,-0.728 -0.024,-0.716 -0.602,0.316 -1.349,0.695 -2.361,1.227 -0.436,0.214 -1.738,1.029 -1.905,0.984 -6.534,-2.001 -5.811,-5.931 -5.475,-7.156 0.82,-2.915 3.834,-2.531 3.93,-2.484 0.123,0.045 -0.096,0.104 -0.579,0.587 -1.013,1.014 -0.723,2.437 -0.071,2.663 0.65,0.223 0.867,0.157 1.785,0 0.916,-0.156 1.3,-0.099 1.856,0.059 0.602,0.157 1.109,0.468 1.688,0.694 0.553,0.226 0.869,0.452 1.735,0.57 0.942,0.127 1.978,0.075 2.484,0 C 9.788,6.981 10.417,5.312 9.089,4.537 8.342,4.102 7.546,3.814 5.762,3.41 4.003,3.002 3.037,2.953 1.832,2.235 0.337,1.337 0,0 0,0"
         style="fill:#ffed00;fill-opacity:1;fill-rule:nonzero;stroke:none"
         id="path335" />
    </g>
    <g
       id="g337"
       transform="translate(75.492,456.01)">
      <path
         d="m 0,0 0.144,0.092 c 0.313,0.212 0.723,0.452 0.939,0.567 1.229,0.587 3.16,0.97 4.846,1.22 1.688,0.247 3.136,0.363 3.377,0.407 L 9.353,1.957 C 9.112,1.91 7.667,1.794 5.978,1.547 4.29,1.297 2.411,0.918 1.253,0.358 1.013,0.247 0.626,0.014 0.311,-0.191 l -0.94,-0.635 0.194,0.673 C 0.167,1.399 1.639,2.275 3.205,2.663 5.013,3.115 6.991,3.28 8.63,4.243 9.765,4.9 9.329,6.391 7.956,6.588 6.967,6.727 5.519,6.718 4.556,6.35 L 3.807,6.028 C 2.385,5.463 1.903,4.968 0.191,5.265 -0.509,5.383 -0.845,5.503 -1.497,5.275 -1.978,5.113 -2.364,3.87 -1.375,2.89 c 0.24,-0.236 0.41,-0.37 0.506,-0.45 l 0.12,-0.129 -0.096,-0.285 c -0.144,-0.059 -3.304,-0.464 -4.17,2.595 -0.363,1.28 -0.989,5.42 5.665,7.454 L 0.793,11.768 C -5.618,9.803 -5.015,5.877 -4.679,4.709 -4.029,2.418 -1.978,2.272 -1.231,2.308 L -1.618,2.649 C -2.773,3.815 -2.533,5.804 -0.772,5.741 0.311,5.705 0.793,5.312 2.049,5.651 2.628,5.807 3.134,6.12 3.687,6.339 L 4.46,6.664 C 5.449,7.052 6.967,7.071 8.004,6.921 9.522,6.701 10.342,4.843 8.799,3.951 7.134,2.972 5.133,2.8 3.278,2.336 1.999,2.02 0.843,1.406 0.144,0.257 Z"
         style="fill:#000000;fill-opacity:1;fill-rule:nonzero;stroke:none"
         id="path339" />
    </g>
    <g
       id="g341"
       transform="translate(132.01,481.61)">
      <path
         d="m 0,0 h -94.974 v -61.981 c 0,-40.389 42.459,-57.309 47.594,-57.199 5.691,0.22 47.38,19.52 47.38,57.199 z m 0.65,0.666 v -62.647 c 0,-38.149 -42.096,-57.639 -48.004,-57.869 -5.378,-0.11 -48.272,17 -48.272,57.869 V 0.666 Z"
         style="fill:#000000;fill-opacity:1;fill-rule:nonzero;stroke:none"
         id="path343" />
    </g>
    <g
       id="g345"
       transform="translate(95.865,438.38)">
      <path
         d="m 0,0 c 0,0 6.68,-0.005 14.613,4.542 8.799,5.067 11.403,12.72 11.62,13.118 0.146,-0.328 2.244,-5.072 3.014,-7.422 C 28.886,9.911 24.064,6.021 18.084,3.605 6.317,-1.13 0,-0.878 0,-0.878 Z"
         style="fill:#ffed00;fill-opacity:1;fill-rule:nonzero;stroke:none"
         id="path347" />
    </g>
    <g
       id="g349"
       transform="translate(74.044,438.23)">
      <path
         d="m 0,0 c 0,0 -7.547,0.045 -15.456,4.589 -8.825,5.067 -11.427,12.715 -11.646,13.118 -0.143,-0.327 -2.242,-5.051 -3.037,-7.398 0.386,-0.328 5.185,-4.241 11.213,-6.657 11.765,-4.735 18.589,-4.561 18.589,-4.561 z"
         style="fill:#ffed00;fill-opacity:1;fill-rule:nonzero;stroke:none"
         id="path351" />
    </g>
    <g
       id="g353"
       transform="translate(81.421,465.1)">
      <path
         d="M 0,0 C 0.026,-0.009 0.725,0.075 0.676,0.716 0.603,1.406 -0.603,1.898 -1.107,1.281 -1.446,0.848 -1.06,0.556 -1.083,0.558 Z"
         style="fill:#000000;fill-opacity:1;fill-rule:nonzero;stroke:none"
         id="path355" />
    </g>
  </g>
</svg>
